<svg width="32" height="32" viewBox="0 0 32 32" fill="none" xmlns="http://www.w3.org/2000/svg">
  <defs>
    <linearGradient id="faviconGradient" x1="0%" y1="0%" x2="100%" y2="100%">
      <stop offset="0%" style="stop-color:#3b82f6;stop-opacity:1" />
      <stop offset="50%" style="stop-color:#06b6d4;stop-opacity:1" />
      <stop offset="100%" style="stop-color:#0891b2;stop-opacity:1" />
    </linearGradient>
  </defs>
  
  <!-- Background: Rounded square -->
  <rect x="2" y="2" width="28" height="28" rx="6" fill="url(#faviconGradient)"/>
  
  <!-- Briefcase body (left) -->
  <rect x="6" y="14" width="8" height="6" rx="1" fill="white" opacity="0.95"/>
  
  <!-- Briefcase handle (left) -->
  <path d="M 7 14 Q 7 11 10 11 L 12 11 Q 13 11 13 14" 
        stroke="white" 
        stroke-width="1.5" 
        fill="none" 
        stroke-linecap="round"/>
  
  <!-- Connection link -->
  <circle cx="16" cy="17" r="1.5" fill="white" opacity="0.95"/>
  <path d="M 14.5 17 L 17.5 17" stroke="white" stroke-width="1.5" stroke-linecap="round" opacity="0.95"/>
  
  <!-- Briefcase body (right) -->
  <rect x="18" y="14" width="8" height="6" rx="1" fill="white" opacity="0.95"/>
  
  <!-- Briefcase handle (right) -->
  <path d="M 19 14 Q 19 11 22 11 L 24 11 Q 25 11 25 14" 
        stroke="white" 
        stroke-width="1.5" 
        fill="none" 
        stroke-linecap="round"/>
  
  <!-- Sparkle accent -->
  <path d="M 16 6 L 16.4 7.2 L 17.6 7.6 L 16.4 8 L 16 9.2 L 15.6 8 L 14.4 7.6 L 15.6 7.2 Z" 
        fill="white" 
        opacity="0.9"/>
</svg>
